<?xml version="1.0" encoding="UTF-8" standalone="no"?>
<!-- Created with Inkscape (http://www.inkscape.org/) -->
<svg xmlns:rdf="http://www.w3.org/1999/02/22-rdf-syntax-ns#" xmlns="http://www.w3.org/2000/svg" xml:space="preserve" version="1.1" xmlns:cc="http://creativecommons.org/ns#" xmlns:dc="http://purl.org/dc/elements/1.1/" viewBox="0 0 11916 7087">
<metadata><rdf:RDF><cc:Work rdf:about=""><dc:format>image/svg+xml</dc:format><dc:type rdf:resource="http://purl.org/dc/dcmitype/StillImage"/><dc:title/></cc:Work></rdf:RDF></metadata>
<path style="color:#000000" d="m1656.6 1617v765.3h10.6 524.5 524.4 10.6v-765.3h-10.6-1048.9-10.6" fill="#fff"/><path style="color:#000000" d="m1656.6 1617v765.3h10.6v-765.3h-10.6" fill="#f0f"/><path style="color:#000000" d="m1656.6 2371.7v10.6h535.1v-10.6h-535.1" fill="#f0f"/><path style="color:#000000" d="m1656.6 1617v10.6h535.1v-10.6h-535.1" fill="#f0f"/><path style="color:#000000" d="m1656.6 1607v785.4" stroke="#00f" fill="none"/><path style="color:#000000" d="m2716.1 1617v765.3h10.6v-765.3h-10.6" fill="#0f0"/><path style="color:#000000" d="m2191.7 2371.7v10.6h535v-10.6h-535" fill="#0f0"/><path style="color:#000000" d="m2191.7 1617v10.6h535v-10.6h-535" fill="#0f0"/><path style="color:#000000" d="m2726.7 1607v785.4" stroke="#00f" fill="#0f0"/><path style="color:#000000" d="m2202.3 1617h-10.6v765.4h10.6v-765.4" stroke-width="0" fill="#ff0"/><path style="color:#000000" d="m2191.7 1617h-10.7v765.4h10.7v-765.4" stroke-width="0" fill="#ff0"/><path opacity=".5" style="color:#000000" d="m1667.2 1627.6v744.1h1048.9v-744.1h-1048.9" fill="#fff"/><path d="m2191.7 2388.9v-778.5" stroke="#0f0" stroke-width="1px" fill="none"/>
</svg>
